# xmcd CD database file
# Copyright (C) 1993-1998 Ti Kan
#
# Track frame offsets:
# 150
# 15282
# 40820
# 57455
# 80675
# 102412
# 121570
# 145057
# 184005
# 204280
# 226162
# 242835
# 263405
#
# Disc length: 4011 seconds
#
# Revision: 1
# Processed by: cddbd v1.4b41PL1 Copyright (c) Steve Scherf et al.
# Submitted via: NetCD 1.2
#
DISCID=9c0fa90d
DTITLE=Rough Red - ...better red than dead
DYEAR=1900
DGENRE=
TTITLE0=The flying dutchman's inn
TTITLE1=A sailor's life
TTITLE2=Stand and deliver
TTITLE3=Lady on the wire
TTITLE4=Backstage desparado
TTITLE5=The innocent victim
TTITLE6=Long train running
TTITLE7=The sea song
TTITLE8=Man on the land
TTITLE9=Cause we were lovers
TTITLE10=The way to liberty
TTITLE11=I don't like these tears
TTITLE12=Night train
EXTD=Rough red are: John Fegan, Peter Hudson, Peter Harvey, Steve Tyson, Jo
EXTD=hn Barr.\n\n100% Australian, distributed by TWA Direct, PO Box 191 Bot
EXTD=any NSW 2019 Australia
EXTT0=
EXTT1=
EXTT2=
EXTT3=
EXTT4=
EXTT5=
EXTT6=
EXTT7=
EXTT8=
EXTT9=
EXTT10=
EXTT11=
EXTT12=
PLAYORDER=
